<?xml version="1.0" encoding="utf-8"?>
<!-- Generator: Adobe Illustrator 18.1.1, SVG Export Plug-In . SVG Version: 6.00 Build 0)  -->
<svg version="1.1" id="レイヤー_1" xmlns="http://www.w3.org/2000/svg" xmlns:xlink="http://www.w3.org/1999/xlink" x="0px"
	 y="0px" viewBox="0 0 151.39 9.55" enable-background="new 0 0 151.39 9.55" xml:space="preserve">
<g>
	<polygon points="16.97,7.8 16.97,7.8 16.79,7.8 16.56,7.75 16.26,7.7 16.1,7.64 15.92,7.59 15.92,7.59 16.36,7.39 16.89,7.14 
		17.48,6.86 18.09,6.55 18.67,6.25 19.18,5.97 19.66,5.69 19.97,5.48 19.97,4.21 16.48,4.21 16.48,3.32 14.75,3.32 14.75,4.21 
		11.12,4.21 11.12,5.38 17.15,5.38 17.15,5.38 16.89,5.53 16.59,5.74 16.23,5.94 15.82,6.14 15.47,6.32 15.09,6.5 14.75,6.65 
		14.47,6.75 14.47,6.75 14.27,6.6 14.07,6.37 13.89,6.17 13.69,5.94 12.24,5.94 12.24,5.94 12.16,6.09 12.06,6.27 11.93,6.5 
		11.75,6.75 11.55,6.98 11.45,7.11 11.32,7.21 11.19,7.34 11.07,7.44 10.94,7.52 10.79,7.59 10.79,9.32 10.79,9.32 10.96,9.25 
		11.14,9.17 11.29,9.07 11.47,8.97 11.8,8.76 12.11,8.48 12.41,8.23 12.54,8.1 12.67,7.97 12.77,7.8 12.87,7.67 12.95,7.52 
		13.05,7.39 13.05,7.39 13.18,7.52 13.3,7.67 13.46,7.8 13.64,7.97 13.84,8.1 14.04,8.23 14.25,8.38 14.47,8.51 14.73,8.61 
		14.98,8.76 15.26,8.87 15.52,8.97 15.8,9.04 16.1,9.09 16.41,9.15 16.71,9.17 16.71,9.17 17.27,9.22 17.81,9.22 18.42,9.25 
		18.98,9.25 19.92,9.22 20.48,9.22 20.48,7.77 20.48,7.77 20.12,7.8 19.66,7.8 18.57,7.82 17.58,7.8 	"/>
	<polygon points="20.43,1.77 18.82,1.77 18.82,1.06 17.17,1.06 17.17,1.77 14.07,1.77 14.07,1.06 12.47,1.06 12.47,1.77 10.79,1.77 
		10.79,2.99 12.47,2.99 12.47,3.83 14.07,3.83 14.07,2.99 17.17,2.99 17.17,3.83 18.82,3.83 18.82,2.99 20.43,2.99 	"/>
	<path d="M9.62,9.22V7.9l0,0L9.31,7.82l-0.33-0.1L8.67,7.59L8.39,7.47L8.11,7.31L7.84,7.14l-0.25-0.2l-0.23-0.2h1.81V3.19H5.6V2.81
		h4.02V1.72H5.6V0.85H4.02v0.86H0v1.09h4.02v0.41H0.53V6.8h1.81l0,0L2.11,6.98l-0.25,0.2L1.58,7.36L1.25,7.52L0.92,7.64L0.64,7.72
		l-0.31,0.1L0,7.9v1.32l0,0l0.28-0.05l0.28-0.05l0.28-0.08l0.25-0.08l0.28-0.1l0.25-0.1l0.25-0.13l0.25-0.13l0.23-0.15L2.62,8.2
		l0.23-0.15L3.08,7.9l0.2-0.18l0.2-0.18l0.2-0.2l0.2-0.2V9.3h1.58V7.14l0,0l0.2,0.2l0.2,0.2l0.2,0.18L6.31,7.9l0.23,0.15L6.77,8.2
		L7,8.36l0.25,0.13L7.5,8.61l0.25,0.13l0.25,0.1l0.28,0.1l0.28,0.08l0.28,0.08l0.28,0.05L9.62,9.22L9.62,9.22L9.62,9.22z M5.6,5.86
		V5.38h1.98v0.48H5.6L5.6,5.86z M7.58,4.06v0.48H5.6V4.06H7.58L7.58,4.06z M4.02,4.06v0.48H2.01V4.06H4.02L4.02,4.06z M2.01,5.41
		h1.98v0.48H2.01V5.41L2.01,5.41z"/>
	<polygon points="29.36,1.11 27.8,1.11 27.8,1.11 27.78,1.39 27.78,1.69 27.75,1.95 27.7,2.2 27.65,2.48 27.6,2.73 27.52,2.99 
		27.45,3.27 27.37,3.52 27.27,3.78 27.14,4.01 27.02,4.24 26.89,4.49 26.76,4.72 26.61,4.92 26.48,5.18 24.6,2.48 22.67,2.48 
		25.34,6.35 25.34,6.35 24.98,6.6 24.8,6.73 24.62,6.86 24.42,6.96 24.19,7.06 23.99,7.16 23.73,7.26 23.48,7.36 23.25,7.44 
		23,7.49 22.72,7.57 22.41,7.59 22.11,7.64 21.83,7.67 21.52,7.67 21.52,7.67 21.34,7.67 21.27,7.67 21.17,7.64 21.17,9.15 
		21.17,9.15 21.42,9.15 21.42,9.15 21.78,9.15 22.08,9.12 22.41,9.09 22.74,9.04 23.07,8.99 23.35,8.92 23.68,8.84 23.99,8.76 
		24.27,8.61 24.57,8.51 24.83,8.38 25.13,8.25 25.39,8.1 25.64,7.92 25.92,7.75 26.18,7.57 27.35,9.27 29.36,9.27 27.37,6.42 
		27.37,6.42 27.55,6.19 27.73,5.94 27.93,5.66 28.11,5.38 28.29,5.05 28.44,4.77 28.62,4.46 28.75,4.11 28.87,3.78 29,3.42 
		29.08,3.07 29.18,2.68 29.25,2.33 29.31,1.92 29.33,1.51 	"/>
	<polygon points="37.73,2.81 37.73,1.46 30.14,1.46 30.14,2.81 	"/>
	<polygon points="39.23,2.79 39.23,1.06 38.18,1.06 38.18,2.79 	"/>
	<polygon points="40.73,2.79 40.73,1.06 39.71,1.06 39.71,2.79 	"/>
	<polygon points="38.06,4.01 29.84,4.01 29.84,5.38 34.11,5.38 34.11,5.51 34.11,5.51 34.09,5.74 34.06,5.99 34.01,6.19 33.91,6.4 
		33.81,6.63 33.71,6.8 33.58,6.98 33.4,7.14 33.25,7.31 33.07,7.44 32.89,7.57 32.66,7.64 32.43,7.72 32.23,7.8 31.98,7.82 
		31.75,7.82 30.25,7.82 30.25,9.27 32.08,9.27 32.08,9.27 32.28,9.27 32.46,9.25 32.64,9.25 32.87,9.2 33.04,9.17 33.22,9.12 
		33.4,9.04 33.58,8.99 33.76,8.92 33.91,8.84 34.06,8.74 34.24,8.61 34.39,8.51 34.52,8.41 34.67,8.28 34.8,8.18 34.95,8.05 
		35.05,7.87 35.18,7.75 35.28,7.59 35.39,7.44 35.46,7.29 35.54,7.11 35.64,6.96 35.72,6.78 35.77,6.6 35.82,6.4 35.87,6.22 
		35.89,6.04 35.92,5.86 35.95,5.66 35.95,5.46 35.95,5.38 38.06,5.38 	"/>
	<polygon points="44.37,2.71 42.66,2.71 42.66,2.71 42.51,3.09 42.36,3.42 42.2,3.75 42,4.06 41.75,4.34 41.52,4.62 41.26,4.87 
		40.96,5.1 40.65,5.33 40.32,5.51 39.99,5.66 39.61,5.81 39.28,5.94 38.9,6.02 38.69,6.04 38.51,6.04 38.29,6.07 38.11,6.07 
		38.11,6.07 37.98,6.07 37.98,7.59 37.98,7.59 38.08,7.59 38.08,7.59 38.49,7.57 38.9,7.54 39.28,7.49 39.66,7.42 40.04,7.31 
		40.37,7.16 40.75,7.03 41.08,6.86 41.08,9.27 42.66,9.27 42.66,5.74 42.66,5.74 42.94,5.43 43.22,5.07 43.47,4.72 43.7,4.34 
		43.91,3.98 44.09,3.55 44.24,3.17 	"/>
	<polygon points="57.52,9.27 57.52,9.27 57.95,9.27 58.59,9.25 59.25,9.2 59.48,9.17 59.65,9.15 59.65,9.15 59.83,9.09 60.01,9.02 
		60.21,8.97 60.42,8.89 60.57,8.79 60.75,8.71 60.9,8.59 61.08,8.48 61.26,8.38 61.38,8.25 61.54,8.13 61.69,8 61.82,7.85 
		61.94,7.72 62.05,7.57 62.17,7.42 62.17,7.42 62.35,7.11 62.53,6.8 62.68,6.45 62.81,6.12 62.91,5.74 62.96,5.56 62.99,5.35 
		63.01,5.15 63.04,4.9 63.04,4.69 63.04,4.46 63.09,2.76 61.43,2.76 61.43,4.44 61.43,4.44 61.41,4.69 61.38,4.97 61.33,5.3 
		61.28,5.53 61.28,5.53 61.23,5.71 61.15,5.91 61.08,6.07 61,6.22 60.88,6.37 60.75,6.55 60.65,6.68 60.52,6.8 60.37,6.91 
		60.19,7.01 60.04,7.11 59.88,7.19 59.7,7.29 59.5,7.34 59.32,7.39 59.15,7.42 59.15,1.28 57.52,1.28 	"/>
	<polygon points="53.98,7.54 53.98,7.54 54.13,7.42 54.29,7.31 54.41,7.14 54.52,7.01 54.64,6.86 54.72,6.68 54.8,6.47 54.82,6.3 
		54.82,6.3 54.87,6.04 54.9,5.74 54.92,5.43 54.92,5.1 54.92,1.28 56.55,1.28 56.55,5.56 56.55,5.56 56.55,5.94 56.5,6.25 
		56.45,6.55 56.4,6.83 56.32,7.06 56.25,7.31 56.19,7.49 56.12,7.64 56.12,7.64 56.04,7.82 55.91,7.97 55.84,8.13 55.74,8.25 
		55.63,8.41 55.51,8.53 55.38,8.66 55.23,8.79 55.1,8.89 54.95,8.99 54.82,9.09 54.67,9.17 54.49,9.25 54.31,9.32 54.16,9.42 
		53.98,9.48 	"/>
	<polygon points="48.82,1.06 47.06,1.06 47.06,2.38 47.06,2.38 47.06,2.45 44.82,2.45 44.82,3.9 47.04,3.9 47.04,3.9 47.04,4.62 
		46.99,5.2 46.93,5.97 46.93,5.97 46.93,6.14 46.88,6.3 46.81,6.47 46.76,6.65 46.65,6.8 46.58,6.93 46.48,7.06 46.35,7.19 
		46.22,7.31 46.04,7.42 45.92,7.49 45.76,7.57 45.59,7.62 45.41,7.67 45.23,7.7 45.05,7.7 44.82,7.7 44.82,9.15 45.48,9.15 
		45.48,9.15 45.79,9.12 46.07,9.09 46.4,9.02 46.68,8.92 46.96,8.81 47.21,8.66 47.44,8.48 47.7,8.31 47.9,8.1 48.08,7.85 
		48.23,7.62 48.38,7.36 48.51,7.08 48.59,6.8 48.64,6.5 48.69,6.22 48.69,6.22 48.77,5.18 48.79,4.57 48.82,3.9 51.54,3.9 
		51.54,7.49 51.54,7.49 51.54,7.57 51.51,7.64 51.49,7.7 51.44,7.75 51.39,7.77 51.34,7.8 51.28,7.82 51.21,7.82 49.99,7.82 
		49.99,9.27 51.92,9.27 51.92,9.27 52.05,9.27 52.2,9.25 52.3,9.22 52.43,9.17 52.56,9.12 52.66,9.07 52.76,8.99 52.84,8.92 
		52.91,8.84 52.99,8.74 53.04,8.61 53.09,8.51 53.14,8.38 53.17,8.28 53.22,8.15 53.22,8.03 53.22,2.45 48.82,2.45 	"/>
	<polygon points="112.19,3.73 112.19,3.6 113.25,3.6 113.25,2.33 112.19,2.33 112.19,0.83 110.61,0.83 110.61,2.33 109.21,2.33 
		109.21,3.6 110.56,3.6 110.56,3.6 110.48,3.9 110.38,4.18 110.25,4.49 110.1,4.8 109.92,5.1 109.82,5.28 109.72,5.41 109.62,5.56 
		109.46,5.69 109.34,5.81 109.18,5.94 109.18,7.72 109.18,7.72 109.36,7.62 109.54,7.49 109.74,7.34 109.95,7.16 110.12,7.01 
		110.28,6.86 110.46,6.68 110.61,6.5 110.61,9.32 112.19,9.32 112.19,5.99 112.19,5.99 112.26,6.12 112.34,6.22 112.46,6.32 
		112.54,6.37 114.04,6.37 114.04,6.37 113.25,5.3 112.67,4.46 	"/>
	<polygon points="117.09,3.24 119.16,3.24 119.16,2.12 117.09,2.12 117.09,0.83 115.62,0.83 115.62,2.12 115.16,2.12 115.16,2.12 
		115.26,1.84 115.31,1.56 115.36,1.28 115.39,1 114.14,1 114.14,1 114.12,1.31 114.09,1.49 114.04,1.72 113.97,1.92 113.91,2 
		113.81,2.1 113.74,2.2 113.66,2.33 113.56,2.43 113.46,2.53 113.46,3.93 113.46,3.93 113.61,3.88 113.76,3.8 113.91,3.75 
		114.07,3.65 114.17,3.55 114.3,3.47 114.4,3.37 114.55,3.24 115.62,3.24 115.62,4.03 113.46,4.03 113.46,5.2 115.49,5.2 
		115.49,5.2 115.39,5.33 115.31,5.48 115.06,5.76 114.83,6.07 114.55,6.32 114.22,6.58 114.07,6.68 113.91,6.78 113.71,6.88 
		113.56,6.96 113.38,7.06 113.2,7.11 113.2,8.59 113.2,8.59 113.48,8.48 113.79,8.36 114.12,8.2 114.42,8.03 114.75,7.8 
		115.06,7.57 115.36,7.31 115.62,7.06 115.62,9.32 117.09,9.32 117.09,7.26 117.09,7.26 117.3,7.44 117.58,7.64 117.83,7.85 
		118.14,8.08 118.39,8.25 118.65,8.41 118.93,8.53 119.13,8.66 119.13,7.08 119.13,7.08 118.85,6.93 118.54,6.73 118.29,6.5 
		117.99,6.25 117.73,5.99 117.5,5.71 117.27,5.46 117.12,5.2 119.16,5.2 119.16,4.03 117.09,4.03 	"/>
	<polygon points="127.98,0.83 129.61,0.83 129.61,1.97 127.98,1.97 	"/>
	<polygon points="123.73,7.44 123.73,5.71 125.46,5.71 125.46,4.52 120.61,4.52 120.61,5.71 122.23,5.71 122.23,7.62 122.23,7.62 
		121.24,7.7 120.27,7.75 120.27,9.15 120.27,9.15 120.61,9.12 121.16,9.07 121.85,9.02 122.64,8.94 123.48,8.81 124.34,8.69 
		124.8,8.59 125.21,8.51 125.62,8.41 126.02,8.31 126.02,6.98 126.02,6.98 125.77,7.03 125.54,7.11 124.98,7.21 124.37,7.36 	"/>
	<polygon points="134.67,0.62 134.67,0.62 134.6,0.75 134.47,0.85 134.34,1 134.14,1.13 133.96,1.28 133.73,1.41 133.48,1.54 
		133.22,1.69 132.94,1.82 132.66,1.92 132.36,2.02 132.03,2.1 131.72,2.15 131.37,2.2 131.04,2.23 130.7,2.25 130.7,3.55 
		130.7,3.55 131.34,3.5 131.7,3.47 132,3.42 132.31,3.37 132.64,3.32 132.94,3.24 133.22,3.17 133.53,3.07 133.83,2.91 134.11,2.79 
		134.42,2.66 134.7,2.48 135,2.28 135.28,2.07 135.54,1.84 135.54,1.84 135.84,2.07 136.15,2.28 136.45,2.51 136.76,2.68 
		137.06,2.84 137.42,2.96 137.73,3.12 138.08,3.24 138.41,3.32 138.72,3.4 139.02,3.47 139.33,3.52 139.63,3.55 139.89,3.57 
		140.14,3.57 140.37,3.57 140.37,2.28 140.37,2.28 140.07,2.28 139.74,2.23 139.46,2.17 139.12,2.12 138.84,2.05 138.57,1.95 
		138.29,1.84 138.03,1.74 137.75,1.62 137.52,1.46 137.29,1.34 137.06,1.21 136.86,1.08 136.68,0.93 136.53,0.78 136.35,0.62 	"/>
	<polygon points="149.45,7.87 149.45,4.36 151.23,4.36 151.23,3.12 149.45,3.12 149.45,0.8 147.95,0.8 147.95,3.12 146.48,3.12 
		146.48,4.36 147.95,4.36 147.95,7.87 145.84,7.87 145.84,9.15 151.39,9.15 151.39,7.87 	"/>
	<polygon points="131.57,3.73 139.48,3.73 139.48,4.85 131.57,4.85 	"/>
	<polygon points="140.42,9.22 138.62,6.8 136.86,6.8 137.39,7.49 137.39,7.49 136.96,7.57 136.53,7.64 136.05,7.7 135.56,7.75 
		135.08,7.77 134.57,7.8 133.6,7.8 134.37,6.5 140.12,6.5 140.12,5.41 130.86,5.41 130.86,6.5 132.64,6.5 131.87,7.77 131.87,7.77 
		130.88,7.75 130.88,9.12 130.88,9.12 132.36,9.12 133.27,9.12 134.32,9.09 134.8,9.09 135.33,9.04 135.87,9.02 136.35,8.97 
		136.86,8.89 137.34,8.81 137.75,8.71 138.16,8.56 138.64,9.22 	"/>
	<polygon points="147.09,7.01 145.31,4.69 145.31,4.69 145.51,4.39 145.71,4.11 145.89,3.8 146.04,3.5 146.2,3.19 146.35,2.84 
		146.48,2.53 146.58,2.2 144.7,2.2 144.7,0.8 143.09,0.8 143.09,2.2 141.44,2.2 141.44,3.47 144.37,3.47 144.37,3.47 144.21,3.75 
		144.06,3.98 143.88,4.18 143.7,4.39 143.55,4.59 143.35,4.77 143.17,4.92 142.99,5.07 142.81,5.25 142.58,5.38 142.38,5.48 
		142.2,5.58 142,5.69 141.8,5.76 141.59,5.86 141.41,5.94 141.41,7.42 141.41,7.42 141.62,7.36 141.85,7.29 142.25,7.11 
		142.66,6.93 143.07,6.73 143.07,9.22 144.57,9.22 144.57,6.12 145.23,7.01 	"/>
	<polygon points="129.74,2.23 127.32,2.23 127.32,2.23 127.32,0.67 125.79,0.67 125.79,0.67 125.79,1.46 125.79,2.23 120.27,2.23 
		120.27,3.57 125.87,3.57 125.87,3.57 125.9,4.11 125.95,4.62 126.02,5.07 126.13,5.53 126.25,5.99 126.3,6.19 126.38,6.37 
		126.46,6.6 126.58,6.78 126.66,6.96 126.76,7.14 126.89,7.34 127.02,7.49 127.12,7.64 127.3,7.8 127.42,7.97 127.58,8.1 
		127.73,8.23 127.91,8.36 128.11,8.48 128.29,8.61 128.49,8.74 128.72,8.84 128.92,8.94 129.18,9.02 129.43,9.12 129.69,9.2 
		129.69,7.57 129.69,7.57 129.38,7.42 129.08,7.29 128.85,7.08 128.59,6.91 128.42,6.7 128.24,6.45 128.08,6.22 127.91,5.99 
		127.8,5.71 127.7,5.43 127.6,5.15 127.52,4.85 127.47,4.54 127.42,4.21 127.4,3.9 127.37,3.57 129.74,3.57 	"/>
	<polygon points="89.42,2.71 89.42,1.34 81.79,1.34 81.79,2.71 	"/>
	<polygon points="89.77,3.9 81.51,3.9 81.51,5.28 85.81,5.28 85.81,5.41 85.81,5.41 85.78,5.63 85.75,5.89 85.7,6.12 85.6,6.32 
		85.5,6.55 85.37,6.73 85.25,6.91 85.09,7.06 84.94,7.21 84.74,7.36 84.53,7.49 84.36,7.57 84.1,7.64 83.9,7.72 83.64,7.75 
		83.39,7.75 82.22,7.75 82.22,9.22 83.72,9.22 83.72,9.22 83.92,9.22 84.13,9.2 84.33,9.17 84.51,9.15 84.69,9.09 84.86,9.04 
		85.09,8.99 85.25,8.92 85.42,8.84 85.58,8.76 85.75,8.69 85.91,8.56 86.06,8.46 86.21,8.33 86.36,8.23 86.49,8.1 86.62,7.97 
		86.75,7.8 86.85,7.67 86.95,7.52 87.08,7.36 87.18,7.19 87.26,7.03 87.33,6.86 87.41,6.7 87.46,6.5 87.51,6.32 87.56,6.14 
		87.59,5.97 87.61,5.74 87.64,5.56 87.64,5.35 87.64,5.28 89.77,5.28 	"/>
	<polygon points="68.38,3.88 68.38,5.33 63.93,5.33 63.93,3.88 	"/>
	<polygon points="68.38,1.31 68.38,2.73 63.93,2.73 63.93,1.31 	"/>
	<polygon points="63.85,9.2 63.85,9.2 65.02,9.22 65.68,9.2 66.37,9.2 66.73,9.17 67.08,9.12 67.44,9.09 67.77,9.02 68.15,8.94 
		68.48,8.87 68.84,8.76 69.17,8.61 69.5,8.48 69.8,8.31 70.13,8.13 70.41,7.87 70.69,7.64 70.85,7.52 70.97,7.39 71.08,7.21 
		71.2,7.06 71.3,6.91 71.43,6.73 71.56,6.58 71.66,6.35 71.74,6.17 71.81,5.97 71.92,5.74 71.97,5.51 72.04,5.3 72.09,5.02 
		72.17,4.77 72.2,4.52 72.27,4.24 72.3,3.96 72.32,3.65 72.35,3.35 72.37,3.07 72.37,2.71 70.77,2.71 70.77,2.71 70.75,3.22 
		70.72,3.68 70.67,4.11 70.59,4.52 70.49,4.87 70.36,5.23 70.21,5.53 70.03,5.81 69.88,6.09 69.68,6.3 69.5,6.5 69.24,6.7 
		69.02,6.88 68.79,7.01 68.51,7.14 68.28,7.29 68.02,7.36 67.72,7.44 67.44,7.52 67.16,7.57 66.88,7.62 66.57,7.64 66.29,7.67 
		66.01,7.67 65.43,7.7 64.87,7.7 63.85,7.67 	"/>
	<polygon points="98.93,9.2 98.93,9.2 98.58,8.08 98.09,6.65 97.56,5.23 97.33,4.57 97.1,3.98 95.37,3.98 95.37,3.98 95.68,4.69 
		95.98,5.56 96.34,6.45 96.62,7.36 96.62,7.36 95.96,7.49 95.29,7.57 94.61,7.64 93.95,7.7 93.28,7.75 92.65,7.77 92.09,7.77 
		91.5,7.8 91.5,7.8 92.09,6.37 92.83,4.49 93.56,2.61 93.82,1.87 94.02,1.31 92.22,1.31 92.22,1.31 92.04,1.87 91.73,2.61 
		91.05,4.44 90.31,6.32 89.75,7.77 89.75,9.3 89.75,9.3 90.94,9.3 91.78,9.27 92.72,9.25 93.74,9.2 94.3,9.15 94.86,9.09 95.4,9.04 
		95.96,8.97 96.54,8.87 97.1,8.79 97.1,8.79 97.23,9.2 	"/>
	<polygon points="81.66,9.17 79.04,5.66 79.04,5.66 79.17,5.46 79.32,5.23 79.42,4.95 79.52,4.72 79.62,4.49 79.73,4.21 79.8,3.96 
		79.88,3.68 79.93,3.4 80.03,3.12 80.08,2.81 80.11,2.53 80.13,2.23 80.16,1.92 80.18,1.62 80.18,1.28 72.98,1.28 72.98,2.81 
		78.2,2.81 78.2,2.81 78.2,3.04 78.17,3.24 78.12,3.47 78.07,3.68 78.02,3.9 77.94,4.13 77.84,4.34 77.77,4.57 77.66,4.77 
		77.54,4.97 77.41,5.2 77.28,5.38 77.1,5.58 76.95,5.76 76.77,5.97 76.62,6.12 76.42,6.3 76.21,6.45 76.04,6.63 75.81,6.75 
		75.58,6.91 75.35,7.03 75.15,7.14 74.87,7.29 74.64,7.39 74.38,7.47 74.1,7.54 73.85,7.62 73.57,7.67 73.31,7.72 73.03,7.77 
		72.75,7.77 72.7,9.3 72.7,9.3 73.09,9.27 73.44,9.22 73.82,9.17 74.15,9.09 74.54,9.02 74.87,8.92 75.22,8.79 75.55,8.66 
		75.88,8.51 76.21,8.36 76.52,8.18 76.83,8 77.1,7.77 77.41,7.57 77.66,7.34 77.94,7.08 79.5,9.17 	"/>
	<polygon points="107.33,0.65 106.36,0.65 106.36,2.28 107.33,2.28 	"/>
	<polygon points="108.93,0.65 107.94,0.65 107.94,2.28 108.93,2.28 	"/>
	<polygon points="106.77,2.71 106.77,2.71 106.69,3.12 106.61,3.47 106.51,3.88 106.39,4.26 106.23,4.67 106.05,5.02 105.9,5.43 
		105.7,5.81 108.39,9.37 106.23,9.37 104.63,7.21 104.63,7.21 104.43,7.44 104.17,7.64 103.92,7.85 103.66,8.05 103.41,8.23 
		103.1,8.41 102.8,8.56 102.47,8.74 102.14,8.89 101.76,9.02 101.4,9.15 101.02,9.25 100.61,9.32 100.2,9.42 99.77,9.5 99.31,9.55 
		99.31,7.97 99.31,7.97 99.44,7.97 99.67,7.92 99.97,7.87 100.31,7.82 100.71,7.72 101.12,7.59 101.35,7.52 101.58,7.44 
		101.81,7.34 102.06,7.19 102.29,7.06 102.49,6.91 102.75,6.75 102.98,6.58 103.18,6.37 103.43,6.17 103.61,5.94 103.82,5.66 
		104.02,5.41 104.2,5.1 104.38,4.8 104.5,4.46 104.63,4.11 104.78,3.73 104.88,3.32 104.96,2.86 99.54,2.86 99.54,1.31 105.93,1.31 
		105.93,2.71 	"/>
</g>
</svg>
