<?xml version="1.0" encoding="UTF-8"?>
<!-- Generator: Adobe Illustrator 19.2.1, SVG Export Plug-In . SVG Version: 6.00 Build 0)  -->
<svg version="1.1" id="Layer_1" xmlns="http://www.w3.org/2000/svg" xmlns:xlink="http://www.w3.org/1999/xlink" x="0px" y="0px" viewBox="0 0 1024 384" style="enable-background:new 0 0 1024 384;" xml:space="preserve">
<style type="text/css">
	.st0{display:none;}
	.st1{display:inline;}
	.st2{fill:none;stroke:#000000;stroke-width:0.4078;}
	.st3{fill:none;}
</style>
<g>
	<g>
		<path d="M678.5,199.3c10.6,0,22.7-8.2,26.9-18.2c2.1-5,2.1-9.7-0.2-13.4c-2.3-3.6-6.4-5.6-11.7-5.6c-10.6,0-22.7,8.2-26.9,18.2    c-2.1,5-2,9.8,0.2,13.4C669.1,197.3,673.3,199.3,678.5,199.3"/>
		<path d="M559.1,199.3c10.6,0,22.7-8.2,26.9-18.2c2.1-5,2-9.7-0.2-13.4c-2.3-3.6-6.4-5.6-11.7-5.6c-10.6,0-22.6,8.2-26.9,18.2    c-2.1,5-2,9.8,0.2,13.4C549.6,197.3,553.8,199.3,559.1,199.3"/>
		<g>
			<path d="M438,120.5c-45.9,6-105.3,20.3-165.8,41.5L333.6,7.3L48.9,269.9c-19.9,17.5-28.6,27.8-34.5,39.8     c-3.5,7.2-4.4,11.7-4.5,16.6c-0.7,19.6,19,35.4,60.8,33c-10.7-2.9-13.4-8.9-13.4-17.9c0.3-32,54.8-85,153.1-136.2L165,317.7h44.9     l54.9-137.4C281.4,172.9,364.1,135.9,438,120.5 M134.9,223.2l111.8-103.1l-25.7,59.9C192.2,193.3,154.8,210.3,134.9,223.2"/>
			<path d="M387.5,209.6H350l-3.2,8.2c-6.6-6.9-15.1-10.2-26.8-10.2c-29.9,0-61.7,23.4-73.8,54.5c-6.9,17.7-6.9,32.7,0.1,43.2     c6.3,9.6,18,14.6,33.6,14.6c9.3,0,20.2-2.4,29.6-6.4l-24.8,62.9h37.5L387.5,209.6 M319.1,288.6c-8.5,4.6-15.1,6.5-22,6.5     c-7,0-12.1-2.2-14.9-6.3c-3.5-5.3-3.2-13.7,0.9-24.3c7.7-19.7,21.4-31.1,37.4-31.1c7.3,0,11.7,1.9,17.1,7.6L319.1,288.6z"/>
			<polygon points="693.3,209.6 655.8,209.6 613.6,317.7 651.1,317.7    "/>
			<polygon points="573.8,209.6 536.3,209.6 494.1,317.7 531.7,317.7    "/>
			<polygon points="653,158.9 615.5,158.9 553.5,317.7 591.1,317.7    "/>
			<path d="M813.4,225c-7.3-11-22.8-17.5-41.6-17.5c-17.1,0-34.9,5-49.9,14.1c-16.7,10.1-29,24.4-35.7,41.6     c-6.1,15.5-5.7,29.1,1.1,39.3c7.4,11.2,22.1,17.4,41.5,17.4c7.1,0,25.7-1.2,45.6-11.8c18.5-9.9,32.1-25,39.5-43.8     C820.2,248.1,820,235,813.4,225 M758.3,289.2c-6.6,6.1-13.9,9.2-21.9,9.2c-6.4,0-10.9-1.9-13.4-5.6c-3.7-5.6-2.9-15.3,2.4-28.8     c8.7-22.2,22.8-35,38.9-35c6.4,0,10.8,1.8,13.2,5.4c3.6,5.5,2.8,14.9-2.3,28.1C770.6,274.1,765,283.1,758.3,289.2"/>
			<path d="M946.7,218.7c-4.7-7.1-14.2-11.2-26-11.2c-13.7,0-25.9,4.5-40.4,15.1l5.1-13h-37.5l-42.2,108.1h37.5     c0,0,25.4-65.1,26.8-68.7c11.2-12.5,21.7-16.9,30.1-16.9c4.4,0,7.4,1.2,9.1,3.7c2.1,3.3,1.8,8.6-1,15.8l-25.7,66H920l26.5-68     C951.6,236.6,951.7,226.2,946.7,218.7"/>
			<path d="M377,308.6c4.7,7.1,14.2,11.2,26,11.2c13.7,0,25.9-4.5,40.4-15.1l-5.1,13h37.5l42.2-108.1h-37.5c0,0-25.4,65.1-26.8,68.7     c-11.2,12.5-21.7,16.9-30.1,16.9c-4.4,0-7.4-1.2-9.1-3.7c-2.1-3.3-1.8-8.6,1-15.8l25.7-66h-37.5l-26.6,68     C372.1,290.7,372,301.1,377,308.6"/>
		</g>
	</g>
	<g>
		<path d="M570.1,7.4h46.5c10.8,0,36,3.3,36,34.5c0,24.6-12.1,37-36,37h-22.9c0,0,0,34.9,0,36.7h-23.6V7.4z M593.7,28.5v30.2h18.9    c10,0,15.3-5.1,15.3-14.7c0-9.8-5.6-15.5-15.3-15.5H593.7z"/>
		<g>
			<path d="M789.4,7.4c0,1.8,0,106.4,0,108.3h-23.6c0-1.9,0-106.4,0-108.3H789.4z"/>
		</g>
		<g>
			<path d="M919.3,7.4v108.3h-23.2V32.1h-0.5c0,0-21.2,82.2-21.5,83.6h-20.9c-0.4-1.4-21.6-83.6-21.6-83.6H831v83.6h-23.2V7.4h37.9     c0.4,1.4,17.7,74.1,17.7,74.1h0.4c0,0,17.3-72.7,17.6-74.1H919.3z"/>
		</g>
		<g>
			<path d="M937,115.7V7.4h68.1c0,1.7,0,19.4,0,21.1c-1.8,0-44.4,0-44.4,0v21.2c0,0,39.7,0,41.5,0c0,1.7,0,18.6,0,20.3     c-1.8,0-41.5,0-41.5,0v24c0,0,43.4,0,45.2,0v21.6H937z"/>
		</g>
		<path d="M664.1,7.4h49.5c17.6,0,35.6,8.6,35.6,30.5c0,11.7-5.9,22.4-16.4,26.8v0.7c10.6,2.7,14.2,15.5,15,25.8    c0.3,4.6,0.3,19.6,3.7,24.5h-24c-2.2-3.6-2.7-14.2-2.9-17.3c-0.7-10.9-3.2-22.8-15.4-22.8h-21.7v40.1h-23.6V7.4z M687.7,55.2h24.2    c7.8,0,12.2-5,12.3-13.2c0.1-8.6-6.1-13.6-13.4-13.6h-23.1V55.2z"/>
	</g>
	<g class="st0">
		<g class="st1">
			<line class="st2" x1="-71.6" y1="376.3" x2="-25.2" y2="376.3"/>
			<line class="st2" x1="9.9" y1="458.2" x2="9.9" y2="409.8"/>
		</g>
		<g class="st1">
			<line class="st2" x1="-71.6" y1="7.3" x2="-25.2" y2="7.3"/>
			<line class="st2" x1="9.9" y1="-75.8" x2="9.9" y2="-28.3"/>
		</g>
		<g class="st1">
			<line class="st2" x1="1095.7" y1="7.3" x2="1047.2" y2="7.3"/>
			<line class="st2" x1="-71.6" y1="115.6" x2="-25.2" y2="115.6"/>
			<line class="st2" x1="1095.7" y1="115.6" x2="1047.2" y2="115.6"/>
			<line class="st2" x1="1005.9" y1="-75.8" x2="1005.9" y2="-28.3"/>
		</g>
		<g class="st1">
			<line class="st2" x1="1095.7" y1="376.3" x2="1047.2" y2="376.3"/>
			<line class="st2" x1="-71.6" y1="317.7" x2="-25.2" y2="317.7"/>
			<line class="st2" x1="1095.7" y1="317.7" x2="1047.2" y2="317.7"/>
			<line class="st2" x1="1005.9" y1="458.2" x2="1005.9" y2="409.8"/>
		</g>
		<g class="st1">
			<line class="st3" x1="508.6" y1="-68.7" x2="508.6" y2="-35.5"/>
		</g>
		<g class="st1">
			<line class="st3" x1="489.3" y1="-49.3" x2="527.9" y2="-49.3"/>
		</g>
		<g class="st1">
			<line class="st3" x1="508.6" y1="455.8" x2="508.6" y2="417"/>
		</g>
		<g class="st1">
			<line class="st3" x1="528" y1="436.4" x2="489.3" y2="436.4"/>
		</g>
	</g>
</g>
<g>
	<path d="M965,199.8v-2.2h15.7v2.2h-6.6v17.5h-2.6v-17.5H965z"/>
	<path d="M986.5,197.6l6.2,16.5l6.2-16.5h3.6v19.7h-2.5v-16.4h-0.1l-6.1,16.4h-2.2l-6.1-16.4h-0.1v16.4H983v-19.7H986.5z"/>
</g>
</svg>