<svg id="Layer_1" data-name="Layer 1" xmlns="http://www.w3.org/2000/svg" viewBox="0 0 448 275"><defs><style>.cls-1{fill:#df0012;}.cls-2{fill:#231916;}</style></defs><title>アートボード 1</title><path class="cls-1" d="M247,156.84a19.8,19.8,0,1,1,0-39.6,20,20,0,0,1,10.6,3L247,136.94l19.8-11.5a27.7,27.7,0,0,0-9-8.7,37.13,37.13,0,0,0-18.7-4.7,33.43,33.43,0,0,0-24.9,9.6,22.18,22.18,0,0,0,0,30.5,36.47,36.47,0,0,0,49.1,0l.8-1-.8-2.8a18.93,18.93,0,0,1-16.3,8.5"/><path class="cls-1" d="M312.9,160.44l-8.3-31.2a11.68,11.68,0,0,0-11.4-8.7,10.88,10.88,0,0,0-4,.7l-18,6.6h18.5l3.3,11.8a17.73,17.73,0,0,0-11.4-4.3c-8.7,0-15.7,5.8-15.7,13s7,13,15.7,13a18.72,18.72,0,0,0,15.2-7.8l1.8,6.8Zm-25.5-4.8a7.2,7.2,0,1,1,7.2-7.2h0a7,7,0,0,1-7.2,7.2h0"/><path class="cls-1" d="M346.9,120.64a6,6,0,0,0-3,.7l-11.5,5.4a7.19,7.19,0,0,0-7.1-6,6,6,0,0,0-3,.7L308.2,128h9.9v32.6h14.5v-29a3.67,3.67,0,1,1,7.3-.7v29.7h14.5V128a7.17,7.17,0,0,0-7.2-7.2h0"/><path class="cls-1" d="M437.8,120.64a6.7,6.7,0,0,0-3.1.7l-11.5,5.4a7.2,7.2,0,0,0-7.2-6,6,6,0,0,0-3,.7L398.9,128h9.9v32.6h14.5v-29a3.67,3.67,0,0,1,7.3,0v29H445V128a7.28,7.28,0,0,0-7.2-7.4"/><path class="cls-1" d="M401.3,141.14a20.55,20.55,0,1,1-20.6-20.5h0a20.68,20.68,0,0,1,20.6,20.5h0m-19.9-14.3a4.56,4.56,0,0,0-8.8,2.4h0l7,26.3a4.54,4.54,0,0,0,5.8,2.8,4.61,4.61,0,0,0,3-5.2Z"/><path class="cls-2" d="M225.7,184.84a6.09,6.09,0,0,0-6.4-5c-5.5,0-7.8,4.5-7.8,9.3s2.3,9.7,7.8,9.7a6.59,6.59,0,0,0,6.6-6.6H229a9.44,9.44,0,0,1-9.5,9.2H219c-7.1,0-10.7-5.3-10.7-12s3.8-12.1,10.9-12.1a8.91,8.91,0,0,1,9.5,7.6h-3Z"/><path class="cls-2" d="M238.2,177.74h3.3l9,23.2h-3.2l-2.5-6.9h-9.9l-2.6,6.9H229Zm-2.3,13.7h7.8l-3.8-10.9h0Z"/><path class="cls-2" d="M253.6,177.74h3.3l12.1,18.7h0v-18.7h2.9v23.2h-3.3l-12-18.5h0v18.5h-2.9Z"/><path class="cls-2" d="M286.6,177.24a11,11,0,0,1,11,10.9v1c0,6.3-3.7,12.1-11,12.1a11,11,0,0,1-11-11h0v-1a11,11,0,0,1,9.9-12Zm0,21.6c5.6,0,8-4.8,8-9.5s-2.3-9.5-8-9.5-8,4.8-8,9.5S281,198.84,286.6,198.84Z"/><path class="cls-2" d="M301.3,177.74h3.3l12.1,18.7h0v-18.7h2.9v23.2h-3.3l-12-18.5h0v18.5h-2.9Z"/><path class="cls-2" d="M350.8,198a9.06,9.06,0,0,1-7.4,3.3,10.91,10.91,0,0,1-10.9-11.1h0v-.5c0-6.6,3.7-12.5,10.9-12.5a8.87,8.87,0,0,1,9.9,7.6h-3.1a6.34,6.34,0,0,0-6.8-5.1c-5.6,0-7.9,4.9-7.9,9.9a8.32,8.32,0,0,0,7.3,9.2h.6a6.93,6.93,0,0,0,7.4-6.4v-1.1h-7.3v-2.6h9.9v12.1h-1.9Z"/><path class="cls-2" d="M358.1,177.74h10.8c4.4,0,7,2.3,7,6a5.47,5.47,0,0,1-4,5.9h0c2.7.5,3.3,2.5,3.3,4.7a11.14,11.14,0,0,0,1.4,6.4h-3.3c-.9-.9-.4-3.3-.8-5.7s-.9-4.2-3.8-4.2h-7.5v9.9h-3.1Zm9.4,10.7c2.8,0,5.3-.7,5.3-4.1a3.69,3.69,0,0,0-3.3-4h-8.4v8Z"/><path class="cls-2" d="M389.9,177.24a11,11,0,0,1,11,10.9v1a11.1,11.1,0,1,1-22.1,2.1,7.39,7.39,0,0,1,0-2.1,11,11,0,0,1,9.9-12Zm0,21.6c5.6,0,8-4.8,8-9.5s-2.3-9.5-8-9.5-8,4.8-8,9.5S384.3,198.84,389.9,198.84Z"/><path class="cls-2" d="M423,192.54a8.08,8.08,0,0,1-7.2,8.9,6.05,6.05,0,0,1-1.9,0c-5.9,0-9.5-2.7-9.5-8.9v-14.7h3.1v14.7a5.73,5.73,0,0,0,5.1,6.3h1.3a5.5,5.5,0,0,0,6-5v-16H423Z"/><path class="cls-2" d="M427.9,177.74H438a6.29,6.29,0,0,1,7,5.4,3.3,3.3,0,0,1,0,1.4,6.27,6.27,0,0,1-5.6,6.9,7.52,7.52,0,0,1-1.5,0h-7v9.4h-3Zm3.1,11.1h6c3.5,0,5-1.5,5-4.2s-1.6-4.2-5-4.2h-6Z"/></svg>