<?xml version="1.0" encoding="utf-8"?>
<!-- Generator: Adobe Illustrator 20.0.0, SVG Export Plug-In . SVG Version: 6.00 Build 0)  -->
<svg version="1.1" id="Layer_1" xmlns="http://www.w3.org/2000/svg" xmlns:xlink="http://www.w3.org/1999/xlink" x="0px" y="0px"
	 viewBox="0 0 448 275" style="enable-background:new 0 0 448 275;" xml:space="preserve">
<g>
	<path d="M224.3,172.3h16.6l1.3-6h-25.3l-8.5,39.9h8.9l3.5-16.9h15.9l1.3-6h-15.9L224.3,172.3z M315,206.4c-0.7,0-1.1-0.5-1.1-1.6
		c0-1.6,2-6.7,4.4-13.5l10.3-29.1c1.3-3.6,1.7-5.1,2.6-7.3c0.6-1.5,1-2.6,1-3c0-0.2,0-0.4-0.3-0.4h-13.8l-0.1,0.4
		c1.4,0.2,2.5,0.4,3.1,1c0.7,0.6,0.9,1.6,0.9,2.8c0,1-0.8,3.6-1.5,5.4L310.2,190c-1.9,5.3-5,12.4-5,15.4c0,3.1,1.6,5.1,4.6,5.1
		c6.1,0,12.6-6,15.9-11.5l-0.9-0.4C322.1,202.7,317.6,206.4,315,206.4 M253.8,201.1c-3.9,0-5.3-2.6-5.3-6.2c0-5.3,2.9-13.8,9.5-13.8
		c3.9,0,5.3,2.6,5.3,6.2C263.3,192.4,260.3,201.1,253.8,201.1 M259.3,175.5c-12,0-19.4,8.8-19.4,20.4c0,2,0.4,3.7,1,5.1
		c2.2,4.1,6.6,5.8,11.7,5.8c11.7,0,19.3-9,19.3-20.5C272,178.4,265.9,175.5,259.3,175.5 M285.5,182.3l1.1-6.2h-7.8
		c-0.2,2.2-0.7,4.4-1.2,6.7l-5,23.4h8.3l2.8-13.2c1-4.8,4.1-10.1,9.5-10.1c0.9,0,1.7,0.1,2.5,0.4l1.9-7.5c-0.8-0.2-1.5-0.3-2.4-0.3
		C291,175.4,287.4,178.7,285.5,182.3 M336.4,175.8c1,0,1.7,0.6,1.7,2.1c0,1.8-1.9,7-3.7,12.2c-2,5.5-4.7,12.4-4.7,15.4
		c0,3.1,1.9,4.9,4.6,4.9c6.1,0,12.1-6,15.4-11.5l-0.8-0.4c-2.6,4.1-6.6,7.8-9.1,7.8c-0.7,0-1.2-0.4-1.2-1.5c0-1.7,1.9-7.8,3.9-13.6
		s3.8-11.2,3.8-13.8c0-3.3-1.8-5.1-4.9-5.1c-3.7,0-9,2.9-13,10.2l0.9,0.4C332.9,177.6,334.9,175.8,336.4,175.8 M393.6,185.9
		c-1.9,2.1-6.3,4.3-10,5.5c2.1-9,6.3-17.7,11-17.7c1.5,0,2.1,1.5,2.1,3.6C396.7,179.5,395.8,183.5,393.6,185.9 M395.4,172.5
		c-3.3,0-7.6,2-11.6,5.5c-6,5.2-10.2,11.8-10.2,20.1c0,7.1,3.7,12.4,9.7,12.5c8.1,0,13.5-5.4,16.6-11.2l-0.8-0.4
		c-2.1,3.6-6.1,9.4-12.6,9.4c-2.5,0-4.3-2.2-4.3-6.1c0-2.9,0.4-6.3,1.1-9.7c6.5-2,13.7-5.2,16.9-7.8c2.1-1.8,3.2-3.7,3.2-5.9
		C403.5,175.1,401.4,172.5,395.4,172.5 M378.5,172.6h-7.8c2.5-9.5,4.4-15.2,6-18.3c1-1.9,2.4-2.2,3.3-2.2c1,0,1.6,0.3,1.6,1.4
		c0.1,0.8-0.2,2.6-0.2,3.5c0.1,2.2,1.4,3.4,3.7,3.4c2.3,0,3.7-1.2,3.7-3.5c0-3.3-3.6-5.8-8.5-5.8c-6.7,0-14.1,4-18.9,21.5h-6.5
		l-0.5,2.1h6.4l-0.7,2.5c-5.4,21.2-9.2,37.3-14.6,44.8c-2.1,2.9-4.2,4.3-6.8,4.3c-0.9,0-1.6-0.5-1.8-1.5c-0.2-1.3,0.1-2.5-0.1-3.8
		c-0.2-1.8-1.4-3.3-3.7-3.3c-1.8,0-3.8,1-3.8,4c0,4.1,3.9,5.9,8.2,5.9c16.4,0,26.7-29.1,32.9-52.7h7.6L378.5,172.6z M120.6,189.2
		c-1.3,5.9-5.2,12-9.9,12c-2.5,0-3.8-2.1-3.8-5c0-7.7,5.9-15.2,12.5-15.2c1,0,2,0.1,2.9,0.4L120.6,189.2z M98.1,196.8
		c0,6.2,3.5,10,9.1,10c4.8,0,9-2.7,12-8.3c-0.7,2.8-0.9,6.1-1,7.6h7.9c0-2.7,0.7-7.6,1.9-13.2l3.5-16.2c-4.1-0.9-8-1.3-11.6-1.3
		C107.2,175.5,98.1,185,98.1,196.8 M345.6,164c2.3,0,4.9-1.7,4.9-4.7s-2.6-4.9-4.9-4.9s-4.7,2-4.7,4.9
		C340.9,162.1,343.3,164,345.6,164 M86.6,166.2L70,196.6l-3.7-30.4H53.2l-8.5,39.9h7.7l7.2-34.3l4.3,34.3h7.7l18.9-34.3l-7.3,34.3
		h8.1l8.5-39.9H86.6z M154.9,189.2c-1.3,5.6-5.2,12-9.9,12c-2.5,0-3.8-2.1-3.8-5c0-7.7,5.6-15.2,12.2-15.2c1.1,0,2.3,0.1,3.2,0.5
		L154.9,189.2z M160.5,163l-2.8,13.1c-1.1-0.4-3.2-0.5-4.3-0.5c-11.9,0-20.9,9.5-20.9,21.3c0,6.2,3.5,10,9.1,10
		c4.9,0,8.8-2.6,11.9-7.7c-0.5,2.8-0.8,5.4-0.8,7h7.9c0-2.7,0.7-7.6,1.9-13.2l6.4-30C168.9,163,160.5,163,160.5,163z M181.2,188.6
		c-1.5,0.1-2.9,0.2-4.2,0.2c1.1-3.8,4.5-8.4,9-8.4c2,0,3.6,0.7,3.6,2.9C189.6,186.9,185.5,188.1,181.2,188.6 M186.7,175.5
		c-10.7,0-19.7,9-19.7,21c0,7.8,6.2,10.4,12.7,10.4c4.1,0,8-0.7,11.4-2.3l0.4-5.8c-2.6,1.7-6.1,2.6-9.2,2.6c-3.7,0-6.8-1.6-6.8-5.6
		c0-0.9,0.1-1.4,0.3-2.3c7.4,0,21.3-1.3,21.3-10.7C197.1,177.2,191.6,175.5,186.7,175.5"/>
</g>
</svg>
