<?xml version="1.0" encoding="utf-8"?>
<!-- Generator: Adobe Illustrator 20.0.0, SVG Export Plug-In . SVG Version: 6.00 Build 0)  -->
<svg version="1.1" id="Layer_1" xmlns="http://www.w3.org/2000/svg" xmlns:xlink="http://www.w3.org/1999/xlink" x="0px" y="0px"
	 viewBox="0 0 448 275" style="enable-background:new 0 0 448 275;" xml:space="preserve">
<style type="text/css">
	.st0{fill:#CF0A2C;}
</style>
<g>
	<polygon class="st0" points="41.5,70 41.5,80.3 28,80.3 28,132 15.5,132 15.5,80.3 1.9,80.3 1.9,70 	"/>
	<path class="st0" d="M103,112.6v1.8c0,5.8,1.6,9.5,8.2,9.5c3.8,0,7.5-2.4,7.5-7.6c0-5.6-2.9-7.7-11.1-10.6
		c-11.1-3.8-16.2-8.4-16.2-18.7c0-12.1,7.4-18.2,19.2-18.2c11.1,0,19.2,4.8,19.2,16.7v1.7h-12c0-5.8-2-9.2-6.8-9.2
		c-5.6,0-7.1,3.6-7.1,7.2c0,3.8,1.1,6.2,6.4,8.4l9.6,4.2c9.4,4.1,11.8,8.9,11.8,16.4c0,13.1-8,19-21.5,19
		c-14.1,0-19.7-6.6-19.7-18.1v-2.5H103z"/>
	<path class="st0" d="M64.9,124c7.4,0,8.6-6.3,8.6-23c0-16.6-1.2-23-8.6-23c-7.4,0-8.6,6.4-8.6,23C56.3,117.7,57.5,124,64.9,124
		 M64.9,68.8C83.6,68.8,86,82.2,86,101s-2.3,32.2-21.1,32.2S43.8,119.8,43.8,101S46.1,68.8,64.9,68.8"/>
	<polygon class="st0" points="137.7,70 150.2,70 150.2,93.7 164.8,93.7 164.8,70 177.3,70 177.3,132 164.8,132 164.8,104.5 
		150.2,104.5 150.2,132 137.7,132 	"/>
	<polygon class="st0" points="185,132 185,101 185,70 197.5,70 197.5,101.4 197.5,132 	"/>
	<path class="st0" d="M217.6,122.8h4.9c6,0,10.1-2.2,10.1-9.4c0-7.2-4.1-9.3-9.5-9.3h-5.5V122.8z M217.6,95.4h3.6
		c6.9,0,10-2.3,10-8.2c0-5.9-2.9-8.1-9-8.1h-4.6V95.4z M205.1,70H226c10.2,0,17.6,3.8,17.6,15.7c0,6.7-3.2,11.8-9.4,13.5v0.2
		c6.9,1,11.3,6.2,11.3,14.4c0,9.7-4.8,18.1-19.4,18.1H205V70H205.1z"/>
	<path class="st0" d="M264.7,108.6h12.1l-6-27.9h-0.2L264.7,108.6z M263,70h15.4l16.4,62h-13l-2.9-13.1h-16.5l-2.9,13.1h-13L263,70z
		"/>
	<polygon class="st0" points="15.5,145.1 34.1,145.1 42.9,188.8 43.1,188.8 52,145.1 70.5,145.1 70.5,207 59,207 59,157.6 
		58.9,157.6 47.8,207 38.1,207 27.1,157.6 26.9,157.6 26.9,207 15.5,207 	"/>
	<polygon class="st0" points="112.5,145.1 112.5,155.3 90.4,155.3 90.4,169.9 111.2,169.9 111.2,180.1 90.4,180.1 90.4,196.8 
		113.4,196.8 113.4,207 77.9,207 77.9,145.1 	"/>
	<path class="st0" d="M132.9,197.8h5.6c8.7,0,10.4-5.5,10.4-22.3c0-14.1-1.1-21.3-10.7-21.3h-5.3V197.8z M120.4,145.1h20.5
		c17.4,0,20.5,11.9,20.5,30.1c0,22-4.7,31.9-21.3,31.9h-19.7V145.1z"/>
	<polygon class="st0" points="168.2,207 168.2,176 168.2,145.1 180.6,145.1 180.6,176 180.6,207 	"/>
	<path class="st0" d="M215.5,166c0-9-1.8-12.9-7.5-12.9c-6.3,0-7.8,6.3-7.8,23.9c0,18.7,2.6,22.1,8,22.1c4.5,0,7.8-2.3,7.8-15.7
		h12.6c0,13.4-3.3,24.9-19.7,24.9c-18.7,0-21.1-13.4-21.1-32.2s2.3-32.2,21.1-32.2c17.9,0,19.2,13.1,19.2,22.1L215.5,166L215.5,166z
		"/>
	<path class="st0" d="M247,183.7h12.1l-6-27.9h-0.2L247,183.7z M245.3,145.1h15.4l16.4,62h-13l-2.9-13.1h-16.5l-2.9,13.1h-13
		L245.3,145.1z"/>
	<polygon class="st0" points="282.4,207 282.4,145.1 294.9,145.1 294.9,196.8 313.8,196.8 313.8,207 	"/>
</g>
</svg>
